<svg xmlns="http://www.w3.org/2000/svg" version="1.1" xmlns:xlink="http://www.w3.org/1999/xlink" xmlns:svgjs="http://svgjs.com/svgjs" width="1440" height="250" preserveAspectRatio="none" viewBox="0 0 1440 250"><g mask="url(&quot;#SvgjsMask1021&quot;)" fill="none"><rect width="1440" height="250" x="0" y="0" fill="url(#SvgjsLinearGradient1022)"></rect><path d="M34 250L284 0L606.5 0L356.5 250z" fill="url(#SvgjsLinearGradient1023)"></path><path d="M246.60000000000002 250L496.6 0L826.6 0L576.6 250z" fill="url(#SvgjsLinearGradient1023)"></path><path d="M501.20000000000005 250L751.2 0L967.2 0L717.2 250z" fill="url(#SvgjsLinearGradient1023)"></path><path d="M727.8000000000001 250L977.8000000000001 0L1162.3000000000002 0L912.3000000000001 250z" fill="url(#SvgjsLinearGradient1023)"></path><path d="M1433 250L1183 0L917.5 0L1167.5 250z" fill="url(#SvgjsLinearGradient1024)"></path><path d="M1191.4 250L941.4000000000001 0L587.4000000000001 0L837.4000000000001 250z" fill="url(#SvgjsLinearGradient1024)"></path><path d="M961.8 250L711.8 0L663.8 0L913.8 250z" fill="url(#SvgjsLinearGradient1024)"></path><path d="M692.1999999999999 250L442.19999999999993 0L151.19999999999993 0L401.19999999999993 250z" fill="url(#SvgjsLinearGradient1024)"></path><path d="M1205.1028992744643 250L1440 15.102899274464363L1440 250z" fill="url(#SvgjsLinearGradient1023)"></path><path d="M0 250L234.89710072553564 250L 0 15.102899274464363z" fill="url(#SvgjsLinearGradient1024)"></path></g><defs><mask id="SvgjsMask1021"><rect width="1440" height="250" fill="#ffffff"></rect></mask><linearGradient x1="20.66%" y1="-119%" x2="79.34%" y2="219%" gradientUnits="userSpaceOnUse" id="SvgjsLinearGradient1022"><stop stop-color="#0e2a47" offset="0"></stop><stop stop-color="rgba(33, 150, 243, 1)" offset="1"></stop></linearGradient><linearGradient x1="0%" y1="100%" x2="100%" y2="0%" id="SvgjsLinearGradient1023"><stop stop-color="rgba(15, 70, 185, 0.2)" offset="0"></stop><stop stop-opacity="0" stop-color="rgba(15, 70, 185, 0.2)" offset="0.66"></stop></linearGradient><linearGradient x1="100%" y1="100%" x2="0%" y2="0%" id="SvgjsLinearGradient1024"><stop stop-color="rgba(15, 70, 185, 0.2)" offset="0"></stop><stop stop-opacity="0" stop-color="rgba(15, 70, 185, 0.2)" offset="0.66"></stop></linearGradient></defs></svg>